<?xml version="1.0" standalone="no"?>
<!DOCTYPE svg PUBLIC "-//W3C//DTD SVG 20010904//EN"
 "http://www.w3.org/TR/2001/REC-SVG-20010904/DTD/svg10.dtd">
<svg version="1.0" xmlns="http://www.w3.org/2000/svg"
 width="900.000000pt" height="795.000000pt" viewBox="0 0 900.000000 795.000000"
 preserveAspectRatio="xMidYMid meet">
<metadata>
Created by potrace 1.10, written by Peter Selinger 2001-2011
</metadata>
<g transform="translate(0.000000,795.000000) scale(0.100000,-0.100000)"
fill="#000000" stroke="none">
<path d="M5176 5657 c-15 -19 -26 -41 -26 -50 0 -9 -4 -18 -9 -22 -5 -3 -12
-19 -16 -36 -4 -17 -13 -42 -21 -57 -8 -15 -14 -41 -14 -59 0 -17 -4 -43 -9
-57 -14 -35 -78 -76 -121 -76 -19 0 -48 -7 -64 -15 -15 -8 -37 -15 -47 -15
-23 0 -89 -31 -89 -42 0 -4 -10 -8 -21 -8 -20 0 -49 -6 -144 -33 -22 -6 -47
-17 -56 -24 -8 -7 -24 -13 -35 -13 -10 -1 -30 -7 -44 -15 -14 -8 -36 -14 -50
-15 -14 0 -38 -7 -54 -15 -24 -13 -32 -13 -41 -3 -18 19 -35 76 -35 117 0 20
-7 45 -15 55 -8 11 -15 29 -15 41 0 12 -7 30 -15 41 -8 10 -15 29 -15 42 0 40
-60 108 -105 120 -48 13 -78 -2 -113 -55 -22 -34 -23 -43 -18 -172 2 -75 8
-156 11 -181 15 -105 4 -160 -34 -160 -9 0 -33 -9 -54 -20 -20 -11 -49 -20
-65 -20 -15 0 -37 -6 -48 -14 -11 -8 -47 -23 -80 -34 -33 -11 -80 -29 -104
-41 -24 -11 -49 -21 -56 -21 -6 0 -17 -6 -23 -14 -7 -8 -26 -18 -43 -22 -17
-3 -60 -19 -96 -35 -35 -16 -69 -29 -75 -29 -6 0 -18 -6 -26 -14 -9 -7 -40
-21 -69 -32 -29 -10 -68 -32 -87 -50 -29 -26 -35 -39 -35 -71 0 -32 7 -45 38
-75 20 -20 47 -41 60 -47 29 -15 168 -12 207 5 17 7 50 16 75 19 25 4 61 16
80 27 25 15 59 22 119 25 50 3 93 10 105 19 11 8 30 14 42 14 12 0 28 7 35 16
9 11 23 14 45 11 20 -4 40 0 55 11 12 9 41 19 63 23 23 3 49 10 58 14 13 5 24
-1 40 -20 13 -15 53 -57 90 -94 l67 -68 -76 -49 c-41 -27 -87 -63 -100 -81
-14 -18 -31 -33 -37 -33 -7 0 -48 -34 -91 -75 -43 -41 -81 -75 -84 -75 -10 0
-121 -115 -121 -125 0 -6 -27 -41 -60 -80 -35 -41 -60 -80 -60 -93 0 -12 -6
-25 -14 -28 -7 -3 -21 -24 -31 -47 -24 -58 -46 -109 -56 -129 -5 -10 -12 -42
-15 -71 l-6 -54 -95 -7 c-130 -10 -135 -12 -156 -82 -10 -33 -25 -72 -33 -87
-17 -34 -18 -63 -3 -73 7 -4 8 -26 4 -64 -6 -55 -5 -59 19 -75 16 -11 26 -27
26 -41 0 -15 7 -27 18 -30 37 -12 65 -29 70 -44 7 -19 99 -110 112 -110 5 0
12 -9 15 -20 5 -15 12 -19 26 -15 14 5 21 0 29 -20 9 -23 15 -26 44 -24 28 3
39 -2 55 -23 12 -14 21 -31 21 -37 0 -6 8 -11 17 -11 19 0 79 -18 105 -31 10
-5 24 -9 31 -9 8 0 22 -9 32 -20 13 -14 31 -20 60 -20 25 0 48 -6 55 -15 11
-13 15 -13 33 0 28 20 54 19 65 -1 9 -16 44 -23 116 -24 16 0 36 -6 44 -13 18
-14 184 -11 193 5 6 10 85 -8 103 -23 10 -8 -65 -49 -90 -49 -10 0 -42 -7 -73
-16 -115 -32 -157 -43 -181 -48 -14 -3 -54 -13 -90 -21 -36 -9 -92 -22 -125
-29 -83 -18 -147 -38 -164 -50 -7 -6 -23 -15 -34 -21 -12 -6 -28 -22 -36 -37
-14 -24 -14 -28 3 -47 25 -28 63 -32 361 -35 143 -2 268 -4 278 -5 11 -1 17
-9 17 -25 0 -26 -25 -93 -44 -116 -7 -8 -19 -35 -26 -60 -7 -25 -22 -54 -32
-66 -10 -11 -18 -30 -18 -41 0 -11 -7 -26 -15 -33 -8 -7 -15 -29 -15 -50 0
-21 -6 -43 -14 -49 -15 -12 -33 -84 -28 -111 32 -193 46 -223 99 -223 37 0
109 50 159 110 52 61 106 177 129 273 9 41 21 85 25 96 5 12 11 43 15 70 4 27
13 63 20 79 8 17 17 55 20 86 8 74 25 90 85 79 35 -6 49 -5 62 7 11 9 25 12
39 8 31 -10 249 -13 255 -3 3 4 42 5 87 2 137 -10 231 -10 249 1 12 6 21 6 29
-2 9 -9 17 -8 35 4 20 13 29 13 54 3 23 -10 47 -10 104 -1 94 14 158 41 188
81 13 18 39 39 58 49 32 15 36 21 44 73 4 32 5 69 2 82 -3 13 -42 60 -86 104
-63 63 -87 81 -117 86 -52 8 -218 8 -227 -1 -4 -4 -24 -8 -44 -9 -97 -3 -210
-15 -233 -25 -14 -5 -47 -9 -74 -7 l-47 3 33 24 c20 15 45 24 64 23 23 -1 40
7 60 28 16 17 34 30 41 30 6 0 17 6 23 14 7 8 24 17 38 21 15 3 40 16 56 27
16 12 40 22 54 24 14 1 32 12 40 24 9 12 35 30 60 41 33 14 48 28 59 54 8 21
21 35 32 35 24 0 132 78 132 96 0 7 15 20 33 27 36 16 53 33 58 62 3 11 15 22
29 25 14 3 29 15 34 25 5 11 26 31 48 45 22 14 45 34 51 46 37 63 61 94 79 99
11 4 42 41 69 83 28 43 59 86 69 97 42 44 59 65 101 120 24 31 52 70 62 86 23
36 35 37 43 2 4 -16 20 -43 36 -61 15 -18 28 -43 28 -55 0 -14 12 -32 30 -46
17 -12 38 -38 47 -56 10 -20 28 -38 44 -44 15 -5 35 -23 43 -40 20 -38 53 -61
88 -61 15 0 30 -5 34 -11 4 -7 25 -9 56 -7 40 4 54 11 81 42 22 24 41 36 59
36 19 0 36 11 57 37 39 47 51 89 51 173 0 60 -3 68 -33 103 -19 20 -40 56 -48
79 -7 24 -22 51 -31 60 -10 10 -18 24 -18 32 0 8 -9 18 -20 21 -11 4 -32 29
-46 56 -16 32 -34 53 -52 60 -32 12 -72 48 -72 64 0 6 -19 30 -41 53 -39 39
-41 44 -35 82 4 23 13 51 20 63 7 12 16 37 20 56 6 35 22 61 37 61 11 0 49
-78 49 -101 0 -9 7 -19 15 -23 8 -3 15 -15 15 -27 0 -13 14 -50 30 -85 17 -34
33 -77 35 -95 2 -18 11 -37 20 -41 8 -5 15 -20 15 -34 0 -13 7 -27 15 -30 8
-4 15 -12 15 -20 0 -8 11 -32 25 -54 14 -22 25 -44 25 -49 0 -5 7 -11 14 -14
8 -3 18 -22 22 -42 6 -35 35 -65 62 -65 22 0 161 148 168 178 3 15 10 38 14
52 20 57 22 101 7 138 -9 20 -18 50 -22 65 -3 16 -17 39 -30 51 -14 13 -30 36
-37 53 -18 41 -76 120 -117 157 -18 17 -68 65 -110 106 -42 42 -92 86 -113 98
-20 12 -39 29 -42 37 -3 8 1 52 9 97 16 100 17 108 19 181 1 53 -2 61 -27 83
-15 13 -37 24 -48 24 -50 0 -143 -113 -189 -231 -12 -29 -25 -58 -30 -64 -18
-23 -60 -105 -60 -118 0 -8 -7 -20 -15 -27 -8 -7 -15 -19 -15 -27 0 -8 -13
-32 -30 -53 -16 -21 -30 -43 -30 -49 0 -7 -11 -24 -24 -38 l-24 -26 -74 37
c-40 20 -83 36 -95 36 -11 0 -23 6 -26 13 -2 7 -49 27 -103 44 -138 44 -169
52 -254 63 -41 6 -103 14 -137 20 -49 8 -272 8 -457 0 -34 -2 -38 15 -16 82
19 58 24 64 45 61 12 -3 26 0 29 6 4 6 16 11 27 11 11 0 45 9 76 20 32 11 65
17 75 14 10 -3 38 5 63 19 28 16 47 22 51 15 12 -19 85 -1 115 28 22 21 34 25
57 21 30 -6 107 16 132 37 8 8 28 16 44 20 16 4 43 18 59 32 16 13 35 24 42
24 28 0 235 220 235 249 0 16 -60 61 -82 61 -7 0 -22 7 -32 15 -11 8 -29 15
-41 15 -11 0 -29 6 -40 13 -23 16 -99 40 -135 43 -91 9 -243 3 -270 -11 -16
-8 -42 -15 -57 -15 -16 0 -38 -7 -49 -15 -12 -8 -42 -14 -67 -13 -31 0 -62 -8
-95 -25 -32 -17 -69 -27 -108 -29 l-59 -3 -6 76 c-10 116 -40 189 -80 189 -10
0 -29 -15 -43 -33z m-208 -909 c3 -43 1 -48 -27 -62 -16 -9 -39 -16 -50 -16
-11 0 -35 -6 -53 -14 -18 -8 -55 -21 -83 -29 -120 -37 -183 -61 -277 -108 -47
-24 -70 -31 -78 -23 -6 6 -8 43 -3 103 7 99 17 116 55 92 16 -10 23 -9 35 1 9
7 24 12 34 10 10 -2 37 7 60 18 27 14 53 20 73 17 19 -3 37 1 48 11 13 10 21
12 30 4 9 -7 18 -6 32 4 10 7 23 11 27 8 4 -2 23 5 41 16 24 15 47 20 83 18
l50 -3 3 -47z m208 -480 c14 -10 122 1 130 14 3 5 11 5 17 -1 8 -6 38 -6 77
-2 70 9 410 -21 465 -40 17 -6 48 -15 70 -21 22 -5 59 -19 82 -29 24 -10 48
-19 54 -19 13 0 69 -39 69 -48 0 -12 -96 -112 -108 -112 -6 0 -19 -13 -29 -30
-9 -16 -21 -30 -25 -30 -5 0 -13 -11 -18 -25 -5 -14 -21 -30 -34 -35 -13 -5
-27 -14 -31 -20 -15 -25 -302 -264 -332 -276 -17 -8 -38 -23 -47 -35 -13 -20
-38 -37 -76 -55 -8 -4 -31 -20 -51 -36 -20 -15 -41 -28 -46 -28 -6 0 -28 -12
-49 -27 -37 -26 -63 -40 -159 -83 -22 -10 -57 -26 -78 -36 -47 -23 -57 -13
-57 63 0 28 -5 55 -10 58 -6 4 -8 21 -5 39 14 71 -68 255 -152 343 -27 28 -69
73 -96 102 -26 28 -52 51 -57 51 -13 0 -100 86 -100 99 0 6 -9 15 -20 21 -11
6 -20 15 -20 21 0 12 84 49 111 49 11 0 36 8 57 19 20 10 53 22 72 26 19 4 42
13 50 20 8 7 47 16 85 20 88 9 167 28 195 48 22 15 43 13 66 -5z m-888 -378
c12 -16 22 -33 22 -38 0 -6 11 -17 25 -26 17 -11 25 -26 25 -44 0 -15 8 -41
19 -58 19 -32 47 -195 36 -213 -3 -6 -8 -63 -11 -128 -4 -112 -6 -119 -37
-164 -33 -48 -93 -79 -120 -62 -26 16 -136 40 -167 35 -22 -3 -40 2 -58 15
-43 32 -92 54 -103 48 -5 -4 -28 9 -49 29 -22 20 -47 36 -55 36 -25 0 -75 42
-75 63 0 11 20 37 45 59 25 22 45 44 45 50 0 6 14 26 30 45 17 18 30 39 30 45
0 11 43 65 90 113 17 17 30 35 30 41 0 16 40 49 93 75 27 13 65 42 85 65 44
51 71 54 100 14z"/>
<path d="M4150 3738 c-33 -14 -78 -36 -112 -54 -36 -19 -37 -60 -3 -129 14
-27 25 -54 25 -60 0 -5 16 -22 34 -37 55 -44 110 -39 170 13 51 45 59 81 31
135 -8 16 -15 37 -15 46 0 9 -6 21 -13 25 -7 4 -23 23 -36 41 -23 34 -40 38
-81 20z"/>
<path d="M2627 4492 c-15 -15 -27 -33 -27 -39 0 -6 -7 -16 -15 -23 -8 -7 -15
-23 -15 -35 0 -12 -7 -39 -15 -58 -8 -20 -15 -49 -15 -63 0 -15 -4 -41 -9 -58
-11 -35 -30 -142 -36 -201 -2 -22 -10 -82 -18 -134 -12 -81 -17 -97 -41 -118
-15 -12 -34 -23 -43 -23 -8 0 -32 -13 -53 -30 -21 -16 -45 -30 -53 -30 -20 0
-107 -44 -134 -68 -12 -10 -38 -42 -57 -71 -31 -46 -36 -61 -36 -112 0 -56 2
-60 33 -79 17 -11 49 -25 69 -30 21 -6 50 -21 65 -34 22 -19 31 -21 53 -13 29
11 67 5 91 -15 12 -11 14 -27 10 -88 l-6 -74 -37 -11 c-20 -6 -43 -16 -50 -23
-6 -6 -24 -12 -39 -12 -15 0 -32 -7 -39 -15 -7 -8 -21 -15 -31 -15 -10 0 -21
-5 -24 -10 -4 -6 -43 -29 -88 -51 -45 -23 -102 -56 -127 -73 -25 -18 -70 -45
-100 -60 -30 -16 -78 -46 -107 -67 -29 -21 -55 -39 -57 -39 -12 0 -133 -97
-173 -138 -48 -49 -56 -87 -25 -115 36 -33 183 -18 270 27 17 9 40 16 50 16
11 0 25 7 32 15 7 8 22 15 34 15 12 0 31 7 42 15 10 8 33 15 49 15 17 0 39 7
49 15 11 8 27 15 37 15 9 0 22 6 28 14 6 7 37 16 68 20 42 5 62 13 79 31 15
17 34 25 56 25 18 0 50 4 71 9 28 7 36 6 29 -2 -11 -14 -10 -232 1 -243 4 -4
7 -13 7 -21 0 -22 -64 -15 -120 13 -29 14 -76 29 -105 33 -30 4 -61 13 -69 21
-19 15 -95 8 -107 -11 -4 -7 -8 -75 -8 -151 0 -137 0 -139 25 -155 19 -12 25
-23 23 -47 -2 -17 1 -44 6 -61 9 -33 91 -145 106 -145 5 0 9 -8 9 -18 0 -10
38 -55 84 -100 74 -72 88 -82 120 -82 28 0 43 -7 64 -30 25 -28 30 -30 62 -20
43 12 127 13 134 1 9 -14 66 -21 87 -10 15 7 21 6 25 -6 9 -23 29 -18 42 9 7
16 21 26 39 28 19 2 32 12 42 33 8 17 22 36 32 42 21 16 59 92 59 121 0 11 4
24 10 27 5 3 16 21 25 38 13 28 15 67 11 238 -3 112 -8 225 -11 250 -5 30 -3
49 4 53 14 9 15 83 1 91 -11 7 -14 48 -3 58 3 4 8 75 10 159 4 135 6 174 12
239 0 9 34 36 74 60 39 23 75 47 79 53 15 22 -15 36 -78 36 -34 0 -65 4 -68 8
-3 5 -6 44 -8 87 -3 73 -2 79 22 94 13 9 31 24 39 33 9 11 23 15 40 12 33 -7
101 21 101 41 0 10 10 15 33 15 18 0 42 7 53 15 10 8 28 15 40 15 13 0 35 20
63 58 23 31 52 59 64 62 17 4 23 15 25 42 2 22 12 44 27 58 21 20 23 29 18 71
-4 33 -2 49 6 49 24 0 9 25 -41 72 -29 26 -63 48 -74 48 -21 0 -84 61 -84 80
0 6 -6 10 -14 10 -7 0 -19 7 -26 15 -14 17 -66 20 -76 4 -4 -7 -20 -8 -41 -4
-27 5 -44 0 -78 -19 -24 -14 -52 -26 -62 -26 -10 0 -27 -7 -37 -15 -10 -8 -23
-12 -28 -9 -5 3 -15 0 -23 -6 -29 -24 -32 -15 -54 145 -7 44 -18 100 -26 124
-8 25 -15 58 -15 75 0 49 -38 116 -76 132 -18 8 -35 18 -39 24 -13 21 -71 11
-98 -18z"/>
<path d="M4729 2153 c-17 -46 15 -231 47 -273 6 -8 14 -33 17 -54 4 -21 15
-48 26 -60 10 -12 22 -37 26 -56 4 -19 20 -50 36 -68 16 -18 29 -42 29 -52 0
-11 14 -39 30 -62 17 -22 30 -47 30 -53 0 -7 7 -15 15 -19 8 -3 15 -12 15 -20
0 -22 52 -96 67 -96 7 0 18 -12 23 -26 16 -42 48 -77 95 -104 24 -14 53 -38
65 -53 14 -18 31 -27 49 -27 18 0 34 -9 49 -29 18 -25 26 -29 59 -24 30 3 45
-1 72 -21 19 -14 44 -26 56 -26 12 0 25 -4 31 -9 11 -11 57 -14 207 -12 114 1
118 2 128 25 9 19 7 32 -9 63 -37 70 -62 129 -62 147 0 21 -44 116 -79 171
-14 22 -31 52 -38 68 -7 15 -23 31 -37 37 -14 5 -32 20 -41 34 -9 13 -26 27
-39 30 -12 3 -29 17 -36 31 -8 15 -50 51 -95 80 -44 30 -109 81 -145 114 -36
34 -74 64 -85 67 -11 4 -48 33 -83 66 -35 32 -81 70 -103 84 -22 13 -56 39
-77 57 -68 59 -146 97 -198 97 -28 0 -36 -5 -45 -27z"/>
</g>
</svg>
